<svg width="24" height="24" viewBox="0 0 24 24" fill="none" xmlns="http://www.w3.org/2000/svg">
<mask id="mask0_2369_3325" style="mask-type:luminance" maskUnits="userSpaceOnUse" x="2" y="6" width="20" height="17">
<path fill-rule="evenodd" clip-rule="evenodd" d="M2 6.54053H21.5859V22.7221H2V6.54053Z" fill="white"/>
</mask>
<g mask="url(#mask0_2369_3325)">
<path fill-rule="evenodd" clip-rule="evenodd" d="M6.71553 8.04053C6.27453 8.04053 4.80053 8.21853 4.37753 10.5025L3.60553 16.5025C3.35453 18.1855 3.54853 19.4035 4.18353 20.1405C4.81053 20.8685 5.93253 21.2225 7.61253 21.2225H15.9605C17.0085 21.2225 18.4395 21.0135 19.3035 20.0155C19.9895 19.2245 20.2255 18.0465 20.0055 16.5135L19.2265 10.4615C18.8945 8.97053 18.0185 8.04053 16.8945 8.04053H6.71553ZM15.9605 22.7225H7.61253C5.46953 22.7225 3.97653 22.1975 3.04753 21.1185C2.11453 20.0365 1.80253 18.4135 2.12053 16.2955L2.89653 10.2695C3.40653 7.50653 5.27153 6.54053 6.71553 6.54053H16.8945C18.3445 6.54053 20.1075 7.50353 20.7025 10.2045L21.4915 16.3115C21.7745 18.2825 21.4205 19.8635 20.4375 20.9975C19.4595 22.1255 17.9115 22.7225 15.9605 22.7225Z" fill="black"/>
</g>
<path fill-rule="evenodd" clip-rule="evenodd" d="M16.0965 7.82049C15.6825 7.82049 15.3465 7.48449 15.3465 7.07049C15.3465 5.10149 13.7445 3.50049 11.7765 3.50049H11.7615C10.8205 3.50049 9.9035 3.87949 9.2385 4.54049C8.5705 5.20549 8.1875 6.12849 8.1875 7.07049C8.1875 7.48449 7.8515 7.82049 7.4375 7.82049C7.0235 7.82049 6.6875 7.48449 6.6875 7.07049C6.6875 5.73149 7.2315 4.42249 8.1795 3.47749C9.1245 2.53849 10.4275 2.00049 11.7585 2.00049H11.7795C14.5725 2.00049 16.8465 4.27449 16.8465 7.07049C16.8465 7.48449 16.5105 7.82049 16.0965 7.82049Z" fill="black"/>
<path fill-rule="evenodd" clip-rule="evenodd" d="M14.7452 12.3242H14.6992C14.2852 12.3242 13.9492 11.9882 13.9492 11.5742C13.9492 11.1602 14.2852 10.8242 14.6992 10.8242C15.1132 10.8242 15.4722 11.1602 15.4722 11.5742C15.4722 11.9882 15.1592 12.3242 14.7452 12.3242Z" fill="black"/>
<path fill-rule="evenodd" clip-rule="evenodd" d="M8.91219 12.3242H8.86719C8.45319 12.3242 8.11719 11.9882 8.11719 11.5742C8.11719 11.1602 8.45319 10.8242 8.86719 10.8242C9.28119 10.8242 9.64019 11.1602 9.64019 11.5742C9.64019 11.9882 9.32619 12.3242 8.91219 12.3242Z" fill="black"/>
</svg>
