<svg width="24" height="24" viewBox="0 0 24 24" fill="none" xmlns="http://www.w3.org/2000/svg">
<path fill-rule="evenodd" clip-rule="evenodd" d="M6.32857 8.34749L6.93157 15.5195C6.97557 16.0715 7.42657 16.4855 7.97757 16.4855H7.98157H18.8926H18.8946C19.4156 16.4855 19.8606 16.0975 19.9346 15.5825L20.8846 9.02349C20.9066 8.86749 20.8676 8.71149 20.7726 8.58549C20.6786 8.45849 20.5406 8.37649 20.3846 8.35449C20.1756 8.36249 11.5026 8.35049 6.32857 8.34749ZM7.97557 17.9855C6.65857 17.9855 5.54357 16.9575 5.43657 15.6425L4.52057 4.74849L3.01357 4.48849C2.60457 4.41649 2.33157 4.02949 2.40157 3.62049C2.47357 3.21149 2.86857 2.94549 3.26857 3.00949L5.34857 3.36949C5.68357 3.42849 5.93857 3.70649 5.96757 4.04649L6.20257 6.84749C20.4786 6.85349 20.5246 6.86049 20.5936 6.86849C21.1506 6.94949 21.6406 7.24049 21.9746 7.68849C22.3086 8.13549 22.4486 8.68649 22.3686 9.23849L21.4196 15.7965C21.2406 17.0445 20.1566 17.9855 18.8966 17.9855H18.8916H7.98357H7.97557Z" fill="black"/>
<path fill-rule="evenodd" clip-rule="evenodd" d="M17.2876 12.0439H14.5156C14.1006 12.0439 13.7656 11.7079 13.7656 11.2939C13.7656 10.8799 14.1006 10.5439 14.5156 10.5439H17.2876C17.7016 10.5439 18.0376 10.8799 18.0376 11.2939C18.0376 11.7079 17.7016 12.0439 17.2876 12.0439Z" fill="black"/>
<path fill-rule="evenodd" clip-rule="evenodd" d="M7.545 20.7021C7.846 20.7021 8.089 20.9451 8.089 21.2461C8.089 21.5471 7.846 21.7911 7.545 21.7911C7.243 21.7911 7 21.5471 7 21.2461C7 20.9451 7.243 20.7021 7.545 20.7021Z" fill="black"/>
<mask id="mask0_2369_2882" style="mask-type:luminance" maskUnits="userSpaceOnUse" x="7" y="20" width="2" height="2">
<path fill-rule="evenodd" clip-rule="evenodd" d="M7 21.2457C7 21.5477 7.243 21.7917 7.546 21.7917C7.847 21.7917 8.09 21.5477 8.09 21.2457C8.09 20.9447 7.847 20.7017 7.546 20.7017C7.243 20.7017 7 20.9447 7 21.2457Z" fill="white"/>
</mask>
<g mask="url(#mask0_2369_2882)">
<path fill-rule="evenodd" clip-rule="evenodd" d="M2 26.7907H13.089V15.7017H2V26.7907Z" fill="black"/>
</g>
<path fill-rule="evenodd" clip-rule="evenodd" d="M7.544 21.0407C7.431 21.0407 7.339 21.1327 7.339 21.2457C7.339 21.4727 7.75 21.4727 7.75 21.2457C7.75 21.1327 7.657 21.0407 7.544 21.0407ZM7.544 22.5407C6.83 22.5407 6.25 21.9597 6.25 21.2457C6.25 20.5317 6.83 19.9517 7.544 19.9517C8.258 19.9517 8.839 20.5317 8.839 21.2457C8.839 21.9597 8.258 22.5407 7.544 22.5407Z" fill="black"/>
<path fill-rule="evenodd" clip-rule="evenodd" d="M18.8263 20.7017C19.1273 20.7017 19.3713 20.9447 19.3713 21.2457C19.3713 21.5467 19.1273 21.7907 18.8263 21.7907C18.5243 21.7907 18.2812 21.5467 18.2812 21.2457C18.2812 20.9447 18.5243 20.7017 18.8263 20.7017Z" fill="black"/>
<mask id="mask1_2369_2882" style="mask-type:luminance" maskUnits="userSpaceOnUse" x="18" y="20" width="2" height="2">
<path fill-rule="evenodd" clip-rule="evenodd" d="M18.2812 21.2457C18.2812 21.5477 18.5243 21.7917 18.8263 21.7917C19.1263 21.7917 19.3713 21.5477 19.3713 21.2457C19.3713 20.9447 19.1263 20.7017 18.8263 20.7017C18.5243 20.7017 18.2812 20.9447 18.2812 21.2457Z" fill="white"/>
</mask>
<g mask="url(#mask1_2369_2882)">
<path fill-rule="evenodd" clip-rule="evenodd" d="M13.2812 26.7907H24.3713V15.7017H13.2812V26.7907Z" fill="black"/>
</g>
<path fill-rule="evenodd" clip-rule="evenodd" d="M18.8253 21.0407C18.7133 21.0407 18.6213 21.1327 18.6213 21.2457C18.6222 21.4747 19.0323 21.4727 19.0312 21.2457C19.0312 21.1327 18.9382 21.0407 18.8253 21.0407ZM18.8253 22.5407C18.1113 22.5407 17.5312 21.9597 17.5312 21.2457C17.5312 20.5317 18.1113 19.9517 18.8253 19.9517C19.5403 19.9517 20.1212 20.5317 20.1212 21.2457C20.1212 21.9597 19.5403 22.5407 18.8253 22.5407Z" fill="black"/>
</svg>
