<svg width="24" height="24" viewBox="0 0 24 24" fill="none" xmlns="http://www.w3.org/2000/svg">
<path d="M20.7861 3.21967C21.079 2.92678 21.5538 2.92678 21.8467 3.21967C22.113 3.48594 22.1372 3.9026 21.9194 4.19621L21.8467 4.28033L15.8467 10.2803C15.5538 10.5732 15.079 10.5732 14.7861 10.2803C14.5198 10.0141 14.4956 9.5974 14.7135 9.30379L14.7861 9.21967L20.7861 3.21967Z" fill="black"/>
<path d="M14.7861 3.21967C15.0523 2.9534 15.469 2.9292 15.7626 3.14705L15.8467 3.21967L21.8467 9.21967C22.1396 9.51256 22.1396 9.98744 21.8467 10.2803C21.5805 10.5466 21.1638 10.5708 20.8702 10.3529L20.7861 10.2803L14.7861 4.28033C14.4932 3.98744 14.4932 3.51256 14.7861 3.21967Z" fill="black"/>
<path fill-rule="evenodd" clip-rule="evenodd" d="M2.54481 3.75328C4.47206 1.82591 5.72717 1.31534 7.06629 2.08531C7.45147 2.30681 7.81261 2.61693 8.3036 3.11559L9.81043 4.67711C10.6424 5.58495 10.8313 6.45616 10.5604 7.47594L10.5233 7.61168L10.4823 7.74547L10.2802 8.33629C9.84918 9.66121 10.0299 10.4087 11.5634 11.9418C13.1579 13.5358 13.9021 13.6669 15.329 13.1683L15.5839 13.0795L15.8915 12.9798L16.0263 12.9427C17.1101 12.6537 18.0259 12.8844 18.997 13.8548L20.2108 15.0267L20.5673 15.3783C20.9634 15.7822 21.2255 16.1025 21.4188 16.4408C22.184 17.7795 21.6723 19.0336 19.6893 21.0091L19.5009 21.2005C19.2049 21.4857 18.9285 21.6903 18.5223 21.8832C17.8402 22.207 17.034 22.3288 16.0975 22.1986C13.7901 21.8776 10.8634 20.0572 7.15516 16.35C6.85342 16.0483 6.56452 15.7524 6.28797 15.4623L5.75086 14.889C0.721164 9.42438 0.277542 6.06763 2.33875 3.96227L2.47254 3.82945L2.54481 3.75328ZM6.31922 3.38512C5.8577 3.11972 5.35861 3.23201 4.43641 4.02574L4.14735 4.28453C4.09687 4.33112 4.0449 4.37986 3.99207 4.43004L3.66004 4.75426L3.62977 4.79137L3.40418 5.01793C2.86002 5.57389 2.60195 6.25246 2.82411 7.4193C3.18872 9.33432 4.85773 11.9323 8.21571 15.2894C11.7146 18.7874 14.3809 20.4457 16.3046 20.7132C17.4256 20.8691 17.9977 20.5977 18.5809 20.0004L19.0263 19.5511C19.2348 19.333 19.4129 19.1351 19.5634 18.9545L19.7684 18.6957C20.293 17.9969 20.3413 17.5774 20.1171 17.1849C20.0317 17.0356 19.9072 16.8714 19.7264 16.6713L19.4813 16.4125L19.3358 16.267L17.8046 14.7884C17.293 14.3168 16.9428 14.2503 16.412 14.392L16.2597 14.4359L15.6249 14.6507C13.7848 15.245 12.4577 14.9567 10.5028 13.0023C8.47826 10.9783 8.24055 9.6271 8.91883 7.68102L8.9618 7.55602L9.08289 7.19274L9.14149 6.96227C9.24639 6.4593 9.1265 6.1085 8.58582 5.56774C8.56358 5.5455 8.53864 5.51996 8.51161 5.49254L7.08973 4.02281C6.76401 3.7017 6.52783 3.50511 6.31922 3.38512Z" fill="black"/>
</svg>
