<svg width="24" height="24" viewBox="0 0 24 24" fill="none" xmlns="http://www.w3.org/2000/svg">
<path fill-rule="evenodd" clip-rule="evenodd" d="M8.68164 3.35461C9.87064 2.88184 14.1293 2.88175 15.3174 3.35461C15.9658 3.6127 16.4034 4.10093 16.8057 4.83118L17.2578 5.69836C17.2682 5.71555 17.2776 5.73126 17.2861 5.74426L17.3242 5.79602C17.5301 6.02037 17.8749 6.15619 18.1025 6.15637C20.2546 6.15637 22 7.90145 22 10.0529V15.8478C21.9999 18.5918 19.7743 20.8174 17.0303 20.8175H6.96973C4.22501 20.8174 2.00008 18.5921 2 15.8478V10.0529C2 7.90145 3.74544 6.15637 5.89746 6.15637C6.12424 6.15619 6.46956 6.02017 6.67578 5.79602C6.67984 5.79154 6.68512 5.78505 6.69141 5.77649L6.74316 5.69739L7.19336 4.83215C7.59527 4.1017 8.03289 3.61289 8.68164 3.35461ZM14.6436 4.70911C13.6144 4.41823 10.0345 4.43087 9.23633 4.74817C8.98331 4.84887 8.75748 5.10106 8.50781 5.55481L8.12305 6.29895L8.02832 6.47082C7.94932 6.60219 7.8705 6.71333 7.78027 6.81164C7.27393 7.36201 6.52462 7.65623 5.89746 7.65637L5.73242 7.66223C4.4855 7.7468 3.5 8.78524 3.5 10.0529V15.8478C3.50008 17.7638 5.05349 19.3174 6.96973 19.3175H17.0303C18.9459 19.3174 20.4999 17.7634 20.5 15.8478V10.0529C20.5 8.72995 19.4262 7.65637 18.1025 7.65637L17.9287 7.64954C17.3402 7.60107 16.6795 7.3116 16.2197 6.81067C16.1306 6.71357 16.0513 6.60319 15.9727 6.47278C15.9614 6.45411 15.9476 6.42948 15.9316 6.40051L15.8154 6.18274L15.4912 5.55481C15.2414 5.10128 15.0157 4.84889 14.7627 4.74817L14.6436 4.70911Z" fill="black"/>
<path d="M17.5051 8.5C18.0574 8.5 18.5051 8.94772 18.5051 9.5C18.5051 10.0128 18.1191 10.4355 17.6217 10.4933L17.5051 10.5C16.9438 10.5 16.4961 10.0523 16.4961 9.5C16.4961 8.98716 16.8821 8.56449 17.3795 8.50673L17.5051 8.5Z" fill="black"/>
<path d="M11.999 9.19922C14.1691 9.19922 15.9286 10.9578 15.9287 13.1279C15.9287 15.2981 14.1692 17.0576 11.999 17.0576C9.82894 17.0575 8.07031 15.298 8.07031 13.1279C8.07047 10.9579 9.82904 9.19937 11.999 9.19922ZM11.999 10.6992C10.6575 10.6994 9.57047 11.7864 9.57031 13.1279C9.57031 14.4696 10.6574 15.5575 11.999 15.5576C13.3408 15.5576 14.4287 14.4697 14.4287 13.1279C14.4286 11.7863 13.3407 10.6992 11.999 10.6992Z" fill="black"/>
</svg>
