<svg width="24" height="24" viewBox="0 0 24 24" fill="none" xmlns="http://www.w3.org/2000/svg">
<path fill-rule="evenodd" clip-rule="evenodd" d="M9.60131 15.1365C9.40931 15.1365 9.21731 15.0635 9.07131 14.9165C8.77831 14.6235 8.77831 14.1495 9.07131 13.8565L13.8633 9.06448C14.1563 8.77148 14.6303 8.77148 14.9233 9.06448C15.2163 9.35748 15.2163 9.83148 14.9233 10.1245L10.1313 14.9165C9.98531 15.0635 9.79331 15.1365 9.60131 15.1365Z" fill="black"/>
<path fill-rule="evenodd" clip-rule="evenodd" d="M14.3973 15.1395C14.2053 15.1395 14.0133 15.0665 13.8673 14.9195L9.07131 10.1225C8.77831 9.82952 8.77831 9.35552 9.07131 9.06252C9.36531 8.76952 9.83931 8.76952 10.1313 9.06252L14.9273 13.8595C15.2203 14.1525 15.2203 14.6265 14.9273 14.9195C14.7813 15.0665 14.5883 15.1395 14.3973 15.1395Z" fill="black"/>
<path fill-rule="evenodd" clip-rule="evenodd" d="M7.665 3.5C5.135 3.5 3.5 5.233 3.5 7.916V16.084C3.5 18.767 5.135 20.5 7.665 20.5H16.333C18.864 20.5 20.5 18.767 20.5 16.084V7.916C20.5 5.233 18.864 3.5 16.334 3.5H7.665ZM16.333 22H7.665C4.276 22 2 19.622 2 16.084V7.916C2 4.378 4.276 2 7.665 2H16.334C19.723 2 22 4.378 22 7.916V16.084C22 19.622 19.723 22 16.333 22Z" fill="black"/>
</svg>
