<svg width="24" height="24" viewBox="0 0 24 24" fill="none" xmlns="http://www.w3.org/2000/svg">
<path fill-rule="evenodd" clip-rule="evenodd" d="M12.2454 22.0001C10.8904 22.0001 9.56938 21.9852 8.26238 21.9581C6.59038 21.9251 5.43338 20.8411 5.24438 19.1291C4.92938 16.2891 4.39038 9.59515 4.38538 9.52815C4.35138 9.11515 4.65938 8.75315 5.07238 8.72015C5.47938 8.70915 5.84738 8.99515 5.88038 9.40715C5.88538 9.47515 6.42338 16.1461 6.73538 18.9641C6.84238 19.9371 7.36738 20.4391 8.29338 20.4581C10.7934 20.5112 13.3444 20.5141 16.0944 20.4641C17.0784 20.4451 17.6104 19.9531 17.7204 18.9571C18.0304 16.1631 18.5704 9.47515 18.5764 9.40715C18.6094 8.99515 18.9744 8.70715 19.3834 8.72015C19.7964 8.75415 20.1044 9.11515 20.0714 9.52815C20.0654 9.59615 19.5234 16.3071 19.2114 19.1221C19.0174 20.8691 17.8634 21.9321 16.1214 21.9641C14.7884 21.9871 13.5024 22.0001 12.2454 22.0001Z" fill="black"/>
<path fill-rule="evenodd" clip-rule="evenodd" d="M20.708 6.98926H3.75C3.336 6.98926 3 6.65326 3 6.23926C3 5.82526 3.336 5.48926 3.75 5.48926H20.708C21.122 5.48926 21.458 5.82526 21.458 6.23926C21.458 6.65326 21.122 6.98926 20.708 6.98926Z" fill="black"/>
<path fill-rule="evenodd" clip-rule="evenodd" d="M17.4386 6.98949C16.3006 6.98949 15.3126 6.17849 15.0886 5.06249L14.8456 3.84649C14.7946 3.66149 14.5836 3.50049 14.3436 3.50049H10.1106C9.87063 3.50049 9.65963 3.66149 9.59862 3.89249L9.36562 5.06249C9.14262 6.17849 8.15363 6.98949 7.01562 6.98949C6.60162 6.98949 6.26562 6.65349 6.26562 6.23949C6.26562 5.82549 6.60162 5.48949 7.01562 5.48949C7.44162 5.48949 7.81163 5.18549 7.89562 4.76749L8.13863 3.55149C8.38563 2.61949 9.19263 2.00049 10.1106 2.00049H14.3436C15.2616 2.00049 16.0686 2.61949 16.3056 3.50649L16.5596 4.76749C16.6426 5.18549 17.0126 5.48949 17.4386 5.48949C17.8526 5.48949 18.1886 5.82549 18.1886 6.23949C18.1886 6.65349 17.8526 6.98949 17.4386 6.98949Z" fill="black"/>
</svg>
