<svg width="24" height="24" viewBox="0 0 24 24" fill="none" xmlns="http://www.w3.org/2000/svg">
<path fill-rule="evenodd" clip-rule="evenodd" d="M11.2111 11.212L10.1641 14.559L13.5101 13.511L14.5581 10.164L11.2111 11.212ZM9.02008 16.452C8.82408 16.452 8.63208 16.375 8.48908 16.233C8.29208 16.035 8.22008 15.744 8.30408 15.479L9.89708 10.39C9.97008 10.154 10.1541 9.97101 10.3881 9.89801L15.4771 8.30501C15.7441 8.22001 16.0341 8.29301 16.2321 8.49001C16.4291 8.68801 16.5011 8.97901 16.4171 9.24401L14.8251 14.333C14.7521 14.568 14.5671 14.752 14.3331 14.825L9.24408 16.418C9.17008 16.441 9.09408 16.452 9.02008 16.452Z" fill="black"/>
<mask id="mask0_2369_3352" style="mask-type:luminance" maskUnits="userSpaceOnUse" x="2" y="2" width="21" height="21">
<path fill-rule="evenodd" clip-rule="evenodd" d="M2 2H22.7218V22.7217H2V2Z" fill="white"/>
</mask>
<g mask="url(#mask0_2369_3352)">
<path fill-rule="evenodd" clip-rule="evenodd" d="M12.361 3.5C7.475 3.5 3.5 7.476 3.5 12.361C3.5 17.247 7.475 21.222 12.361 21.222C17.247 21.222 21.222 17.247 21.222 12.361C21.222 7.476 17.247 3.5 12.361 3.5ZM12.361 22.722C6.648 22.722 2 18.074 2 12.361C2 6.648 6.648 2 12.361 2C18.074 2 22.722 6.648 22.722 12.361C22.722 18.074 18.074 22.722 12.361 22.722Z" fill="black"/>
</g>
</svg>
