<svg width="24" height="24" viewBox="0 0 24 24" fill="none" xmlns="http://www.w3.org/2000/svg">
<mask id="mask0_2369_2978" style="mask-type:luminance" maskUnits="userSpaceOnUse" x="2" y="2" width="21" height="21">
<path fill-rule="evenodd" clip-rule="evenodd" d="M2 2H22.0027V22.001H2V2Z" fill="white"/>
</mask>
<g mask="url(#mask0_2369_2978)">
<path fill-rule="evenodd" clip-rule="evenodd" d="M10.9447 20.0754C11.5347 20.6514 12.4847 20.6444 13.0707 20.0554L13.7927 19.3354C14.3527 18.7764 15.1267 18.4574 15.9157 18.4574H16.9457C17.7797 18.4574 18.4577 17.7794 18.4577 16.9464V15.9174C18.4577 15.1164 18.7677 14.3634 19.3337 13.7964L20.0537 13.0754C20.3467 12.7814 20.5037 12.4004 20.5027 11.9964C20.5017 11.5934 20.3427 11.2144 20.0557 10.9284L19.3347 10.2064C18.7677 9.63539 18.4577 8.88339 18.4577 8.08239V7.05539C18.4577 6.22139 17.7797 5.54339 16.9457 5.54339H15.9177C15.1167 5.54339 14.3637 5.23239 13.7967 4.66939L13.0747 3.94639C12.4737 3.35139 11.5147 3.35439 10.9277 3.94539L10.2087 4.66639C9.63472 5.23339 8.88172 5.54339 8.08372 5.54339H7.05472C6.22172 5.54439 5.54372 6.22239 5.54372 7.05539V8.08039C5.54372 8.88139 5.23272 9.63439 4.66872 10.2024L3.95872 10.9134C3.95172 10.9214 3.94472 10.9274 3.93772 10.9344C3.35072 11.5254 3.35372 12.4844 3.94472 13.0714L4.66672 13.7934C5.23272 14.3614 5.54372 15.1144 5.54372 15.9154V16.9464C5.54372 17.7794 6.22072 18.4574 7.05472 18.4574H8.08172C8.88372 18.4584 9.63672 18.7694 10.2037 19.3344L10.9247 20.0534C10.9307 20.0604 10.9377 20.0674 10.9447 20.0754ZM11.9987 22.0014C11.2317 22.0014 10.4647 21.7114 9.87772 21.1294C9.86972 21.1214 9.86172 21.1134 9.85372 21.1044L9.14372 20.3954C8.86072 20.1144 8.48272 19.9584 8.08072 19.9574H7.05472C5.39372 19.9574 4.04372 18.6064 4.04372 16.9464V15.9154C4.04372 15.5134 3.88672 15.1364 3.60472 14.8524L2.88572 14.1344C1.71772 12.9724 1.70372 11.0804 2.85072 9.90039C2.85972 9.89139 2.86872 9.88239 2.87772 9.87339L3.60572 9.14339C3.88672 8.86039 4.04372 8.48139 4.04372 8.08039V7.05539C4.04372 5.39539 5.39372 4.04439 7.05372 4.04339H8.08372C8.48472 4.04339 8.86272 3.88639 9.14972 3.60339L9.86472 2.88639C11.0337 1.70939 12.9447 1.70339 14.1237 2.87539L14.8547 3.60639C15.1377 3.88739 15.5157 4.04339 15.9177 4.04339H16.9457C18.6067 4.04339 19.9577 5.39439 19.9577 7.05539V8.08239C19.9577 8.48339 20.1137 8.86239 20.3967 9.14739L21.1147 9.86639C21.6837 10.4314 21.9997 11.1864 22.0027 11.9914C22.0057 12.7964 21.6947 13.5534 21.1277 14.1244L20.3947 14.8554C20.1137 15.1384 19.9577 15.5154 19.9577 15.9174V16.9464C19.9577 18.6064 18.6067 19.9574 16.9467 19.9574H15.9157C15.5197 19.9574 15.1327 20.1174 14.8517 20.3964L14.1337 21.1144C13.5467 21.7054 12.7727 22.0014 11.9987 22.0014Z" fill="black"/>
</g>
<path fill-rule="evenodd" clip-rule="evenodd" d="M9.42944 15.3214C9.23744 15.3214 9.04544 15.2484 8.89944 15.1014C8.60644 14.8084 8.60644 14.3344 8.89944 14.0414L14.0394 8.90041C14.3324 8.60741 14.8074 8.60741 15.1004 8.90041C15.3934 9.19341 15.3934 9.66841 15.1004 9.96141L9.95944 15.1014C9.81344 15.2484 9.62144 15.3214 9.42944 15.3214Z" fill="black"/>
<path fill-rule="evenodd" clip-rule="evenodd" d="M14.505 15.499C13.952 15.499 13.5 15.052 13.5 14.499C13.5 13.946 13.943 13.499 14.496 13.499H14.505C15.058 13.499 15.505 13.946 15.505 14.499C15.505 15.052 15.058 15.499 14.505 15.499Z" fill="black"/>
<path fill-rule="evenodd" clip-rule="evenodd" d="M9.505 10.499C8.952 10.499 8.5 10.052 8.5 9.49902C8.5 8.94602 8.943 8.49902 9.496 8.49902H9.505C10.058 8.49902 10.505 8.94602 10.505 9.49902C10.505 10.052 10.058 10.499 9.505 10.499Z" fill="black"/>
</svg>
