<svg width="24" height="24" viewBox="0 0 24 24" fill="none" xmlns="http://www.w3.org/2000/svg">
<path fill-rule="evenodd" clip-rule="evenodd" d="M12 16.541C11.586 16.541 11.25 16.205 11.25 15.791V3.75C11.25 3.336 11.586 3 12 3C12.414 3 12.75 3.336 12.75 3.75V15.791C12.75 16.205 12.414 16.541 12 16.541Z" fill="black"/>
<path fill-rule="evenodd" clip-rule="evenodd" d="M12.0013 16.541C11.8023 16.541 11.6103 16.462 11.4703 16.32L8.55431 13.393C8.26231 13.099 8.26331 12.624 8.55631 12.332C8.85031 12.04 9.32431 12.04 9.61631 12.334L12.0013 14.729L14.3863 12.334C14.6783 12.04 15.1523 12.04 15.4463 12.332C15.7393 12.624 15.7403 13.099 15.4483 13.393L12.5323 16.32C12.3923 16.462 12.2003 16.541 12.0013 16.541Z" fill="black"/>
<mask id="mask0_2369_3112" style="mask-type:luminance" maskUnits="userSpaceOnUse" x="2" y="7" width="20" height="15">
<path fill-rule="evenodd" clip-rule="evenodd" d="M2 7.73242H21.9998V21.4764H2V7.73242Z" fill="white"/>
</mask>
<g mask="url(#mask0_2369_3112)">
<path fill-rule="evenodd" clip-rule="evenodd" d="M17.575 21.4764H6.435C3.99 21.4764 2 19.4874 2 17.0414V12.1564C2 9.71642 3.985 7.73242 6.426 7.73242H7.367C7.781 7.73242 8.117 8.06842 8.117 8.48242C8.117 8.89642 7.781 9.23242 7.367 9.23242H6.426C4.812 9.23242 3.5 10.5434 3.5 12.1564V17.0414C3.5 18.6604 4.816 19.9764 6.435 19.9764H17.575C19.187 19.9764 20.5 18.6634 20.5 17.0514V12.1674C20.5 10.5484 19.183 9.23242 17.566 9.23242H16.634C16.22 9.23242 15.884 8.89642 15.884 8.48242C15.884 8.06842 16.22 7.73242 16.634 7.73242H17.566C20.011 7.73242 22 9.72242 22 12.1674V17.0514C22 19.4914 20.014 21.4764 17.575 21.4764Z" fill="black"/>
</g>
</svg>
