<svg width="24" height="24" viewBox="0 0 24 24" fill="none" xmlns="http://www.w3.org/2000/svg">
<mask id="mask0_2369_2950" style="mask-type:luminance" maskUnits="userSpaceOnUse" x="2" y="2" width="20" height="20">
<path fill-rule="evenodd" clip-rule="evenodd" d="M2 2H21.4996V21.5007H2V2Z" fill="white"/>
</mask>
<g mask="url(#mask0_2369_2950)">
<path fill-rule="evenodd" clip-rule="evenodd" d="M8.773 11.5985C8.791 11.6145 8.808 11.6295 8.825 11.6475C9.904 12.7535 10.499 14.2185 10.499 15.7735V19.7575L12.735 18.5395C12.911 18.4435 13.02 18.2555 13.02 18.0485V15.7615C13.02 14.2125 13.609 12.7525 14.678 11.6525L19.515 6.50751C19.828 6.17451 20 5.73751 20 5.27651V4.34051C20 3.87651 19.634 3.49951 19.186 3.49951H4.315C3.866 3.49951 3.5 3.87651 3.5 4.34051V5.27651C3.5 5.73751 3.672 6.17451 3.985 6.50651L8.773 11.5985ZM10.146 21.5005C9.944 21.5005 9.744 21.4465 9.562 21.3385C9.21 21.1285 8.999 20.7575 8.999 20.3455V15.7735C8.999 14.6385 8.576 13.5695 7.805 12.7505C7.782 12.7315 7.759 12.7105 7.739 12.6885L2.893 7.53551C2.317 6.92351 2 6.12051 2 5.27651V4.34051C2 3.04951 3.039 1.99951 4.315 1.99951H19.186C20.461 1.99951 21.5 3.04951 21.5 4.34051V5.27651C21.5 6.11951 21.183 6.92151 20.609 7.53451L15.762 12.6885C14.959 13.5165 14.52 14.6055 14.52 15.7615V18.0485C14.52 18.8045 14.111 19.4965 13.453 19.8565L10.692 21.3605C10.52 21.4535 10.333 21.5005 10.146 21.5005Z" fill="black"/>
</g>
</svg>
