<svg width="24" height="24" viewBox="0 0 24 24" fill="none" xmlns="http://www.w3.org/2000/svg">
<path fill-rule="evenodd" clip-rule="evenodd" d="M8.59766 16.5595C8.18366 16.5595 7.84766 16.2235 7.84766 15.8095V12.0645C7.84766 11.6505 8.18366 11.3145 8.59766 11.3145C9.01166 11.3145 9.34766 11.6505 9.34766 12.0645V15.8095C9.34766 16.2235 9.01166 16.5595 8.59766 16.5595Z" fill="black"/>
<path fill-rule="evenodd" clip-rule="evenodd" d="M10.5085 14.6865H6.6875C6.2735 14.6865 5.9375 14.3505 5.9375 13.9365C5.9375 13.5225 6.2735 13.1865 6.6875 13.1865H10.5085C10.9225 13.1865 11.2585 13.5225 11.2585 13.9365C11.2585 14.3505 10.9225 14.6865 10.5085 14.6865Z" fill="black"/>
<path fill-rule="evenodd" clip-rule="evenodd" d="M15.1148 12.9287H15.0078C14.5938 12.9287 14.2578 12.5927 14.2578 12.1787C14.2578 11.7647 14.5938 11.4287 15.0078 11.4287H15.1148C15.5288 11.4287 15.8648 11.7647 15.8648 12.1787C15.8648 12.5927 15.5288 12.9287 15.1148 12.9287Z" fill="black"/>
<path fill-rule="evenodd" clip-rule="evenodd" d="M16.9312 16.5029H16.8242C16.4102 16.5029 16.0742 16.1669 16.0742 15.7529C16.0742 15.3389 16.4102 15.0029 16.8242 15.0029H16.9312C17.3452 15.0029 17.6812 15.3389 17.6812 15.7529C17.6812 16.1669 17.3452 16.5029 16.9312 16.5029Z" fill="black"/>
<mask id="mask0_2369_3310" style="mask-type:luminance" maskUnits="userSpaceOnUse" x="7" y="1" width="7" height="6">
<path fill-rule="evenodd" clip-rule="evenodd" d="M7.07031 1H13.1103V6.5879H7.07031V1Z" fill="white"/>
</mask>
<g mask="url(#mask0_2369_3310)">
<path fill-rule="evenodd" clip-rule="evenodd" d="M12.3603 6.588C11.9463 6.588 11.6103 6.252 11.6103 5.838V5.163C11.6073 4.439 10.9933 3.844 10.2423 3.841H9.18831C8.02131 3.841 7.07031 2.903 7.07031 1.75C7.07031 1.336 7.40631 1 7.82031 1C8.23531 1 8.57031 1.336 8.57031 1.75C8.57031 2.076 8.84731 2.341 9.18831 2.341H10.2453C11.8183 2.346 13.1033 3.61 13.1103 5.159V5.838C13.1103 6.252 12.7743 6.588 12.3603 6.588Z" fill="black"/>
</g>
<mask id="mask1_2369_3310" style="mask-type:luminance" maskUnits="userSpaceOnUse" x="1" y="5" width="22" height="18">
<path fill-rule="evenodd" clip-rule="evenodd" d="M1 5.37305H22.4998V22.4998H1V5.37305Z" fill="white"/>
</mask>
<g mask="url(#mask1_2369_3310)">
<path fill-rule="evenodd" clip-rule="evenodd" d="M11.701 6.8728C10.225 6.8728 8.767 6.8858 7.335 6.9098C4.528 6.9098 2.5 8.8878 2.5 11.6118V16.2618C2.5 18.9848 4.528 20.9628 7.323 20.9628C10.27 21.0118 13.241 21.0118 16.165 20.9628H16.178C18.972 20.9628 21 18.9848 21 16.2618V11.6118C21 8.8878 18.972 6.9098 16.178 6.9098C14.674 6.8858 13.179 6.8728 11.701 6.8728ZM11.754 22.4998C10.271 22.4998 8.786 22.4868 7.31 22.4628C3.659 22.4628 1 19.8538 1 16.2618V11.6118C1 8.0188 3.659 5.4098 7.323 5.4098C10.192 5.3608 13.18 5.3608 16.19 5.4098C19.841 5.4098 22.5 8.0188 22.5 11.6118V16.2618C22.5 19.8518 19.845 22.4598 16.184 22.4628C14.716 22.4868 13.236 22.4998 11.754 22.4998Z" fill="black"/>
</g>
</svg>
