<svg width="24" height="24" viewBox="0 0 24 24" fill="none" xmlns="http://www.w3.org/2000/svg">
<path fill-rule="evenodd" clip-rule="evenodd" d="M8.982 6.3035C8.95 6.3035 8.918 6.3075 8.886 6.3155C5.916 7.0465 3.5 10.2645 3.5 13.4885C3.5 17.5445 6.8 20.8445 10.857 20.8445C14.514 20.8445 17.57 18.2395 18.124 14.6495C18.128 14.6195 18.142 14.5325 18.06 14.4355C17.982 14.3445 17.858 14.2905 17.728 14.2905C16.317 14.2905 15.24 14.3225 14.399 14.3465C12.363 14.4075 11.521 14.4305 10.689 13.8135C9.435 12.8845 9.329 11.2885 9.329 6.5945C9.329 6.5105 9.293 6.4405 9.221 6.3845C9.154 6.3315 9.069 6.3035 8.982 6.3035ZM10.857 22.3445C5.973 22.3445 2 18.3715 2 13.4885C2 9.6165 4.928 5.7445 8.527 4.8585C9.089 4.7215 9.693 4.8495 10.147 5.2035C10.58 5.5435 10.829 6.0505 10.829 6.5945C10.829 10.9795 10.977 12.1595 11.582 12.6085C11.979 12.9015 12.523 12.8985 14.356 12.8475C15.208 12.8225 16.299 12.7905 17.728 12.7905C18.298 12.7905 18.835 13.0345 19.199 13.4595C19.537 13.8545 19.685 14.3705 19.607 14.8785C18.939 19.2035 15.259 22.3445 10.857 22.3445Z" fill="black"/>
<mask id="mask0_2369_2700" style="mask-type:luminance" maskUnits="userSpaceOnUse" x="12" y="1" width="11" height="11">
<path fill-rule="evenodd" clip-rule="evenodd" d="M12.4727 1.00049H22.8916V11.2898H12.4727V1.00049Z" fill="white"/>
</mask>
<g mask="url(#mask0_2369_2700)">
<path fill-rule="evenodd" clip-rule="evenodd" d="M14.0094 2.50174C13.8994 5.02074 14.0624 8.27474 14.1384 9.56374C14.1424 9.64074 14.1984 9.69674 14.2744 9.70074C15.3024 9.75974 18.8444 9.92374 21.3914 9.54874C21.3974 8.14474 20.4364 6.24074 18.9894 4.79474C17.5054 3.31274 15.7494 2.50174 14.0314 2.50174H14.0094ZM17.3134 11.2897C16.0034 11.2897 14.8504 11.2367 14.1874 11.1987C13.3534 11.1497 12.6894 10.4847 12.6414 9.65074C12.5634 8.32874 12.3944 4.96974 12.5144 2.37174C12.5474 1.61674 13.1574 1.01574 13.9034 1.00274C16.0404 0.940742 18.2454 1.93274 20.0494 3.73374C21.8074 5.49074 22.9234 7.79974 22.8914 9.61674C22.8794 10.3257 22.3644 10.9177 21.6684 11.0227C20.3104 11.2277 18.7204 11.2897 17.3134 11.2897Z" fill="black"/>
</g>
</svg>
