<svg width="24" height="24" viewBox="0 0 24 24" fill="none" xmlns="http://www.w3.org/2000/svg">
<path fill-rule="evenodd" clip-rule="evenodd" d="M9.76094 15.6172C9.56894 15.6172 9.37694 15.5442 9.23094 15.3972C8.49294 14.6602 8.08594 13.6802 8.08594 12.6382C8.08594 10.4782 9.84194 8.72119 11.9999 8.72119C13.0379 8.72119 14.0459 9.14019 14.7649 9.87119C15.0549 10.1672 15.0519 10.6412 14.7559 10.9312C14.4609 11.2232 13.9869 11.2182 13.6959 10.9242C13.2569 10.4772 12.6389 10.2212 11.9999 10.2212C10.6689 10.2212 9.58594 11.3052 9.58594 12.6382C9.58594 13.2792 9.83694 13.8832 10.2909 14.3372C10.5839 14.6302 10.5839 15.1042 10.2919 15.3972C10.1449 15.5442 9.95294 15.6172 9.76094 15.6172Z" fill="black"/>
<path fill-rule="evenodd" clip-rule="evenodd" d="M12.5656 16.4913C12.2106 16.4913 11.8946 16.2373 11.8286 15.8753C11.7546 15.4683 12.0246 15.0773 12.4326 15.0033C13.4126 14.8253 14.1886 14.0473 14.3646 13.0663C14.4386 12.6593 14.8286 12.3913 15.2356 12.4613C15.6436 12.5343 15.9146 12.9243 15.8416 13.3323C15.5546 14.9253 14.2926 16.1893 12.7006 16.4793C12.6556 16.4873 12.6096 16.4913 12.5656 16.4913Z" fill="black"/>
<mask id="mask0_2369_3228" style="mask-type:luminance" maskUnits="userSpaceOnUse" x="2" y="4" width="17" height="15">
<path fill-rule="evenodd" clip-rule="evenodd" d="M2 4.62451H18.0862V18.7226H2V4.62451Z" fill="white"/>
</mask>
<g mask="url(#mask0_2369_3228)">
<path fill-rule="evenodd" clip-rule="evenodd" d="M6.6545 18.7226C6.4925 18.7226 6.3295 18.6696 6.1915 18.5626C4.5005 17.2346 3.0715 15.2876 2.0615 12.9336C1.9795 12.7436 1.9795 12.5296 2.0615 12.3406C3.0825 9.97664 4.5205 8.01964 6.2205 6.68264C9.6865 3.93964 14.3005 3.93064 17.8015 6.70264C18.1265 6.95964 18.1815 7.43164 17.9245 7.75664C17.6665 8.07964 17.1965 8.13664 16.8705 7.87864C13.9045 5.53064 10.0835 5.53864 7.1495 7.86064C5.7135 8.99064 4.4805 10.6366 3.5705 12.6386C4.4715 14.6286 5.6935 16.2646 7.1185 17.3826C7.4445 17.6386 7.5005 18.1106 7.2445 18.4356C7.0965 18.6236 6.8765 18.7226 6.6545 18.7226Z" fill="black"/>
</g>
<mask id="mask1_2369_3228" style="mask-type:luminance" maskUnits="userSpaceOnUse" x="8" y="8" width="14" height="13">
<path fill-rule="evenodd" clip-rule="evenodd" d="M8.71875 8.74121H22.0013V20.6894H8.71875V8.74121Z" fill="white"/>
</mask>
<g mask="url(#mask1_2369_3228)">
<path fill-rule="evenodd" clip-rule="evenodd" d="M12.0014 20.6894C11.0644 20.6894 10.1324 20.5374 9.23238 20.2384C8.83938 20.1074 8.62638 19.6824 8.75738 19.2894C8.88838 18.8954 9.31138 18.6864 9.70638 18.8144C10.4534 19.0634 11.2254 19.1894 12.0014 19.1894C15.4294 19.1894 18.5624 16.7474 20.4314 12.6364C19.9754 11.6374 19.4444 10.7324 18.8504 9.94242C18.6014 9.61142 18.6674 9.14042 18.9984 8.89142C19.3284 8.64242 19.7994 8.71042 20.0484 9.04042C20.7724 10.0014 21.4084 11.1124 21.9394 12.3384C22.0224 12.5284 22.0224 12.7444 21.9394 12.9334C19.8434 17.7904 16.1284 20.6894 12.0014 20.6894Z" fill="black"/>
</g>
<mask id="mask2_2369_3228" style="mask-type:luminance" maskUnits="userSpaceOnUse" x="3" y="4" width="18" height="18">
<path fill-rule="evenodd" clip-rule="evenodd" d="M3.36328 4.00049H20.6368V21.2735H3.36328V4.00049Z" fill="white"/>
</mask>
<g mask="url(#mask2_2369_3228)">
<path fill-rule="evenodd" clip-rule="evenodd" d="M4.11303 21.2733C3.92103 21.2733 3.72903 21.2003 3.58303 21.0533C3.29003 20.7603 3.29003 20.2863 3.58303 19.9933L19.357 4.21926C19.65 3.92626 20.124 3.92626 20.417 4.21926C20.71 4.51226 20.71 4.98726 20.417 5.28026L4.64303 21.0533C4.49703 21.2003 4.30503 21.2733 4.11303 21.2733Z" fill="black"/>
</g>
</svg>
