<svg width="24" height="24" viewBox="0 0 24 24" fill="none" xmlns="http://www.w3.org/2000/svg">
<path d="M9.5 18H14.5" stroke="black" stroke-width="1.5" stroke-linecap="round"/>
<path d="M10 21H14" stroke="black" stroke-width="1.5" stroke-linecap="round"/>
<path d="M12 3C8.7 3 6 5.7 6 9C6 11.2 7.2 13.1 9 14.2C9.6 14.5 10 15.2 10 15.9V16C10 16.6 10.4 17 11 17H13C13.6 17 14 16.6 14 16V15.9C14 15.2 14.4 14.5 15 14.2C16.8 13.1 18 11.2 18 9C18 5.7 15.3 3 12 3Z" stroke="black" stroke-width="1.5" stroke-linejoin="round"/>
</svg>
