<svg width="24" height="24" viewBox="0 0 24 24" fill="none" xmlns="http://www.w3.org/2000/svg">
<path fill-rule="evenodd" clip-rule="evenodd" d="M16.9218 10.1998C16.5078 10.1998 16.1718 9.86377 16.1718 9.44977V7.30277C16.1718 5.20677 14.4668 3.50177 12.3708 3.50177H12.3548C11.3418 3.50177 10.3928 3.89177 9.67578 4.60277C8.95378 5.31677 8.55478 6.26977 8.55078 7.28577V9.44977C8.55078 9.86377 8.21478 10.1998 7.80078 10.1998C7.38678 10.1998 7.05078 9.86377 7.05078 9.44977V7.30277C7.05678 5.86277 7.61378 4.53377 8.61878 3.53777C9.62478 2.54077 10.9528 1.96377 12.3738 2.00177C15.2938 2.00177 17.6718 4.37977 17.6718 7.30277V9.44977C17.6718 9.86377 17.3358 10.1998 16.9218 10.1998Z" fill="black"/>
<path fill-rule="evenodd" clip-rule="evenodd" d="M8.542 10.1284C6.864 10.1284 5.5 11.4924 5.5 13.1704V17.4594C5.5 19.1374 6.864 20.5014 8.542 20.5014H16.183C17.86 20.5014 19.225 19.1374 19.225 17.4594V13.1704C19.225 11.4924 17.86 10.1284 16.183 10.1284H8.542ZM16.183 22.0014H8.542C6.037 22.0014 4 19.9644 4 17.4594V13.1704C4 10.6654 6.037 8.62842 8.542 8.62842H16.183C18.688 8.62842 20.725 10.6654 20.725 13.1704V17.4594C20.725 19.9644 18.688 22.0014 16.183 22.0014Z" fill="black"/>
<path fill-rule="evenodd" clip-rule="evenodd" d="M12.3633 17.1756C11.9493 17.1756 11.6133 16.8396 11.6133 16.4256V14.2046C11.6133 13.7906 11.9493 13.4546 12.3633 13.4546C12.7773 13.4546 13.1133 13.7906 13.1133 14.2046V16.4256C13.1133 16.8396 12.7773 17.1756 12.3633 17.1756Z" fill="black"/>
</svg>
