<svg width="512" height="512" viewBox="0 0 512 512" fill="none" xmlns="http://www.w3.org/2000/svg">
<path d="M224.488 29.8546V59.7092L206.661 74.8529C182.761 95.1526 151.21 121.979 134.567 136.149C127.073 142.495 111.928 155.367 100.846 164.741C78.6812 183.527 77.143 184.933 74.0273 189.151C69.2552 195.606 66.6128 202.564 65.9029 210.569C65.469 215.292 65.5479 259.714 65.9817 260.11C66.4156 260.507 139.299 260.327 143.874 259.93C187.573 256.18 224.133 230.256 239.317 192.216C241.289 187.313 243.3 180.209 244.523 173.791L245.588 168.203L245.667 84.0833L245.785 -6.22789e-05H235.137H224.488V29.8546Z" fill="black"/>
<path d="M266.806 104.78C266.925 167.626 266.925 167.842 267.792 172.566C270.395 186.916 274.931 198.67 282.266 210.028C291.14 223.766 304.076 235.989 318.629 244.426C333.774 253.188 351.088 258.596 368.638 259.966C371.636 260.182 398.888 260.327 442.705 260.327H512V250.591V240.856H479.462H446.925V227.407C446.925 212.264 446.57 207.54 445.15 202.42C443.928 198.129 440.299 191.207 437.499 187.853C435.212 185.077 430.44 180.822 415.965 168.563C410.089 163.624 400.071 155.078 393.682 149.634C387.254 144.189 378.222 136.473 373.568 132.543C368.914 128.577 362.88 123.457 360.159 121.149C357.438 118.842 349.826 112.351 343.2 106.727C308.493 77.2326 298.594 68.8315 292.323 63.4591C285.934 57.9785 276.232 49.7577 270.711 45.1064L266.648 41.7171L266.806 104.78Z" fill="black"/>
<path d="M0.236635 280.23C0.354953 280.699 0.473271 285.061 0.473271 289.965V298.907L33.0106 298.979L65.548 299.087V352.631C65.548 382.089 65.7452 408.518 65.9424 411.403C66.534 420.056 69.1764 427.232 74.3035 434.01C81.4025 443.421 93.3921 450.127 105.973 451.786C107.708 452.002 133.975 452.146 177.279 452.146H245.825L245.667 412.016C245.549 373.147 245.509 371.777 244.72 367.234C241.841 351.081 236.32 337.92 227.249 325.481C210.684 302.801 185.68 287.189 156.85 281.636C146.162 279.581 150.421 279.653 72.0949 279.545L0 279.401L0.236635 280.23Z" fill="black"/>
<path d="M370.413 279.689C362.683 280.122 349.984 282.501 342.135 284.989C315.08 293.607 292.442 311.527 279.348 334.639C273.393 345.167 270.119 354.362 267.753 367.198L266.925 371.921L266.806 441.943L266.648 512H277.336H287.985V482.326V452.615L295.163 452.399C299.067 452.255 325.137 452.146 353.06 452.146C397.547 452.146 404.252 452.074 407.525 451.57C426.969 448.577 441.64 435.488 445.979 417.172C446.688 414.251 446.728 410.97 446.728 346.862V279.617L409.655 279.581C389.265 279.581 371.596 279.617 370.413 279.689Z" fill="black"/>
</svg>
