<svg width="800" height="800" viewBox="0 0 800 800" fill="none" xmlns="http://www.w3.org/2000/svg">
<path d="M534.057 5.70585C537.537 7.89441 542.508 14.2169 545.242 19.5667C549.964 28.8073 550.212 34.6435 550.958 189.545C551.455 277.817 550.958 353.687 550.212 358.064C549.467 362.441 544.993 369.493 540.519 373.871C531.075 383.111 436.878 463.115 332.989 550.171L259.918 611.451L252.213 605.858C159.508 538.256 72.7679 471.87 61.0865 459.711C50.3993 448.282 43.9373 434.421 42.6946 419.101C40.9548 401.106 48.9081 383.354 67.3 364.387C115.268 314.536 263.895 187.356 422.214 60.4199C485.841 9.59662 487.58 8.13758 502.493 3.03094C516.659 -1.58936 524.364 -1.10301 534.057 5.70585Z" fill="white"/>
<path d="M592.468 458.736C614.837 465.788 625.773 473.083 664.296 505.425C699.838 535.336 799.999 629.93 799.999 633.578C799.999 641.116 622.542 777.293 594.954 790.911C589.486 793.586 578.55 796.99 570.597 798.693C545.743 803.556 509.705 794.559 482.614 776.564C466.21 765.378 313.856 649.87 297.204 635.766C295.215 634.064 376.985 560.383 444.587 503.48C493.798 461.897 522.132 449.495 561.401 452.657C570.348 453.143 584.267 456.061 592.468 458.736Z" fill="white"/>
<path d="M50.6536 501.292C72.5251 518.071 121.239 554.304 158.768 581.782C196.298 609.261 228.111 632.362 229.105 633.335C231.093 635.037 85.9462 761.487 67.5543 774.376C49.908 786.534 20.8289 779.969 7.1592 760.515L0.945708 751.517L0.20009 618.988C-0.296989 546.036 0.20009 482.567 0.945708 478.19C1.93987 473.084 3.92818 470.409 6.66212 470.409C8.89897 470.409 28.7821 484.27 50.6536 501.292Z" fill="white"/>
</svg>
