<svg width="1024" height="1024" viewBox="0 0 1024 1024" fill="none" xmlns="http://www.w3.org/2000/svg">
<circle cx="512" cy="512" r="512" fill="#1D76CC"/>
<path d="M652.3 132.992C655.344 134.907 659.694 140.44 662.086 145.121C666.218 153.206 666.435 158.313 667.088 293.852C667.523 371.09 667.088 437.476 666.435 441.306C665.783 445.136 661.869 451.307 657.954 455.137C649.69 463.222 567.268 533.226 476.365 609.4L412.428 663.02L405.686 658.126C324.569 598.974 248.671 540.886 238.45 530.247C229.098 520.246 223.444 508.118 222.357 494.713C220.834 478.968 227.794 463.435 243.887 446.838C285.859 403.219 415.907 291.937 554.437 180.867C610.11 136.397 611.632 135.12 624.681 130.652C637.077 126.609 643.818 127.035 652.3 132.992Z" fill="white"/>
<path d="M703.412 529.394C722.984 535.564 732.553 541.948 766.261 570.247C797.36 596.419 885.001 679.189 885.001 682.381C885.001 688.977 729.726 808.132 705.586 820.047C700.802 822.388 691.233 825.367 684.274 826.856C662.527 831.112 630.993 823.239 607.289 807.493C592.936 797.706 459.625 696.637 445.055 684.296C443.315 682.806 514.863 618.335 574.016 568.545C617.075 532.16 641.867 521.308 676.228 524.074C684.057 524.5 696.235 527.053 703.412 529.394Z" fill="white"/>
<path d="M229.322 566.63C248.46 581.312 291.084 613.015 323.922 637.059C356.761 661.103 384.597 681.317 385.467 682.168C387.207 683.657 260.203 794.301 244.11 805.578C228.67 816.217 203.225 810.472 191.264 793.45L185.827 785.577L185.175 669.614C184.74 605.781 185.175 550.246 185.827 546.416C186.697 541.948 188.437 539.607 190.829 539.607C192.787 539.607 210.184 551.736 229.322 566.63Z" fill="white"/>
</svg>
