<svg width="24" height="24" viewBox="0 0 24 24" fill="none" xmlns="http://www.w3.org/2000/svg">
<path fill-rule="evenodd" clip-rule="evenodd" d="M12 3.5C7.313 3.5 3.5 7.313 3.5 12C3.5 16.687 7.313 20.5 12 20.5C16.687 20.5 20.5 16.687 20.5 12C20.5 7.313 16.687 3.5 12 3.5ZM12 22C6.486 22 2 17.514 2 12C2 6.486 6.486 2 12 2C17.514 2 22 6.486 22 12C22 17.514 17.514 22 12 22Z" fill="black"/>
<path fill-rule="evenodd" clip-rule="evenodd" d="M15.9464 13.0137C15.3934 13.0137 14.9414 12.5667 14.9414 12.0137C14.9414 11.4607 15.3844 11.0137 15.9364 11.0137H15.9464C16.4994 11.0137 16.9464 11.4607 16.9464 12.0137C16.9464 12.5667 16.4994 13.0137 15.9464 13.0137Z" fill="black"/>
<path fill-rule="evenodd" clip-rule="evenodd" d="M11.9376 13.0137C11.3846 13.0137 10.9336 12.5667 10.9336 12.0137C10.9336 11.4607 11.3756 11.0137 11.9286 11.0137H11.9376C12.4906 11.0137 12.9376 11.4607 12.9376 12.0137C12.9376 12.5667 12.4906 13.0137 11.9376 13.0137Z" fill="black"/>
<path fill-rule="evenodd" clip-rule="evenodd" d="M7.93078 13.0137C7.37778 13.0137 6.92578 12.5667 6.92578 12.0137C6.92578 11.4607 7.36878 11.0137 7.92178 11.0137H7.93078C8.48378 11.0137 8.93078 11.4607 8.93078 12.0137C8.93078 12.5667 8.48378 13.0137 7.93078 13.0137Z" fill="black"/>
</svg>
