<svg width="24" height="24" viewBox="0 0 24 24" fill="none" xmlns="http://www.w3.org/2000/svg">
<mask id="mask0_2369_2967" style="mask-type:luminance" maskUnits="userSpaceOnUse" x="3" y="2" width="18" height="20">
<path fill-rule="evenodd" clip-rule="evenodd" d="M3 2.01172H20.0515V21.8667H3V2.01172Z" fill="white"/>
</mask>
<g mask="url(#mask0_2369_2967)">
<path fill-rule="evenodd" clip-rule="evenodd" d="M7.479 3.51172C5.836 3.51172 4.5 4.84872 4.5 6.49072V17.3397C4.505 18.1507 4.827 18.9147 5.406 19.4877C5.984 20.0587 6.781 20.3867 7.567 20.3667C7.574 20.3667 7.684 20.3657 7.69 20.3657H15.573C17.215 20.3477 18.555 18.9907 18.552 17.3407V8.34172L13.917 3.51172H7.479ZM7.543 21.8667C6.343 21.8667 5.208 21.4017 4.351 20.5537C3.487 19.6997 3.007 18.5597 3 17.3437V6.49072C3 4.02172 5.009 2.01172 7.479 2.01172H14.237C14.441 2.01172 14.636 2.09472 14.778 2.24172L19.843 7.52072C19.977 7.65972 20.052 7.84672 20.052 8.03972V17.3397C20.057 19.8087 18.051 21.8397 15.581 21.8657L7.572 21.8667H7.543Z" fill="black"/>
</g>
<path fill-rule="evenodd" clip-rule="evenodd" d="M19.2957 8.98449H16.5397C14.7097 8.97949 13.2227 7.48749 13.2227 5.65949V2.75049C13.2227 2.33649 13.5587 2.00049 13.9727 2.00049C14.3867 2.00049 14.7227 2.33649 14.7227 2.75049V5.65949C14.7227 6.66349 15.5387 7.48149 16.5417 7.48449H19.2957C19.7097 7.48449 20.0457 7.82049 20.0457 8.23449C20.0457 8.64849 19.7097 8.98449 19.2957 8.98449Z" fill="black"/>
<path fill-rule="evenodd" clip-rule="evenodd" d="M13.0751 15.3984C12.8831 15.3984 12.6911 15.3254 12.5451 15.1784L9.07913 11.7124C8.78612 11.4194 8.78612 10.9454 9.07913 10.6524C9.37213 10.3594 9.84613 10.3594 10.1391 10.6524L13.6051 14.1184C13.8981 14.4114 13.8981 14.8854 13.6051 15.1784C13.4591 15.3254 13.2671 15.3984 13.0751 15.3984Z" fill="black"/>
<path fill-rule="evenodd" clip-rule="evenodd" d="M9.60913 15.3984C9.41712 15.3984 9.22513 15.3254 9.07913 15.1784C8.78612 14.8854 8.78612 14.4114 9.07913 14.1184L12.5451 10.6524C12.8381 10.3594 13.3121 10.3594 13.6051 10.6524C13.8981 10.9454 13.8981 11.4194 13.6051 11.7124L10.1391 15.1784C9.99312 15.3254 9.80113 15.3984 9.60913 15.3984Z" fill="black"/>
</svg>
