<svg width="24" height="24" viewBox="0 0 24 24" fill="none" xmlns="http://www.w3.org/2000/svg">
<mask id="mask0_2369_2871" style="mask-type:luminance" maskUnits="userSpaceOnUse" x="3" y="2" width="18" height="20">
<path fill-rule="evenodd" clip-rule="evenodd" d="M3 2.01172H20.0522V21.8652H3V2.01172Z" fill="white"/>
</mask>
<g mask="url(#mask0_2369_2871)">
<path fill-rule="evenodd" clip-rule="evenodd" d="M7.57307 3.51172C5.91607 3.51172 4.54007 4.85372 4.50107 6.50872V17.2277C4.46507 18.9287 5.80507 20.3287 7.49007 20.3657H15.5731C17.2421 20.3057 18.5631 18.9287 18.5521 17.2327V8.33972L13.9181 3.51172H7.58507H7.57307ZM7.58507 21.8657H7.45907C4.94707 21.8117 2.94707 19.7237 3.00107 17.2117V6.49072C3.06007 4.00972 5.10807 2.01172 7.57007 2.01172H7.58807H14.2371C14.4411 2.01172 14.6361 2.09472 14.7781 2.24172L19.8441 7.51872C19.9771 7.65772 20.0521 7.84472 20.0521 8.03772V17.2277C20.0681 19.7367 18.1121 21.7757 15.5991 21.8657H7.58507Z" fill="black"/>
</g>
<path fill-rule="evenodd" clip-rule="evenodd" d="M19.2986 8.98449H16.5446C14.7136 8.97949 13.2266 7.48749 13.2266 5.65949V2.75049C13.2266 2.33649 13.5626 2.00049 13.9766 2.00049C14.3906 2.00049 14.7266 2.33649 14.7266 2.75049V5.65949C14.7266 6.66349 15.5426 7.48149 16.5466 7.48449H19.2986C19.7126 7.48449 20.0486 7.82049 20.0486 8.23449C20.0486 8.64849 19.7126 8.98449 19.2986 8.98449Z" fill="black"/>
<path fill-rule="evenodd" clip-rule="evenodd" d="M11.1406 16.7002C10.7266 16.7002 10.3906 16.3642 10.3906 15.9502V9.90918C10.3906 9.49518 10.7266 9.15918 11.1406 9.15918C11.5546 9.15918 11.8906 9.49518 11.8906 9.90918V15.9502C11.8906 16.3642 11.5546 16.7002 11.1406 16.7002Z" fill="black"/>
<path fill-rule="evenodd" clip-rule="evenodd" d="M11.1413 16.6995C10.9423 16.6995 10.7503 16.6205 10.6103 16.4785L8.26525 14.1245C7.97325 13.8305 7.97425 13.3555 8.26725 13.0635C8.56125 12.7715 9.03625 12.7715 9.32825 13.0655L11.1413 14.8875L12.9543 13.0655C13.2463 12.7715 13.7213 12.7715 14.0153 13.0635C14.3083 13.3555 14.3093 13.8305 14.0173 14.1245L11.6723 16.4785C11.5323 16.6205 11.3403 16.6995 11.1413 16.6995Z" fill="black"/>
</svg>
