<svg width="24" height="24" viewBox="0 0 24 24" fill="none" xmlns="http://www.w3.org/2000/svg">
<path fill-rule="evenodd" clip-rule="evenodd" d="M11.889 12.6185H11.921C14.849 12.6185 17.23 10.2375 17.23 7.30951C17.23 4.38151 14.849 1.99951 11.921 1.99951C8.99202 1.99951 6.61002 4.38151 6.61002 7.30651C6.60002 10.2265 8.96702 12.6095 11.889 12.6185ZM8.03802 7.30951C8.03802 5.16851 9.78002 3.42751 11.921 3.42751C14.061 3.42751 15.802 5.16851 15.802 7.30951C15.802 9.44951 14.061 11.1915 11.921 11.1915H11.892C9.76002 11.1835 8.03102 9.44351 8.03802 7.30951Z" fill="black"/>
<path fill-rule="evenodd" clip-rule="evenodd" d="M4 18.1728C4 21.8699 9.962 21.8699 11.921 21.8699C15.32 21.8699 19.84 21.4888 19.84 18.1929C19.84 14.4958 13.88 14.4958 11.921 14.4958C8.521 14.4958 4 14.8769 4 18.1728ZM5.5 18.1728C5.5 16.7278 7.66 15.9958 11.921 15.9958C16.181 15.9958 18.34 16.7348 18.34 18.1929C18.34 19.6378 16.181 20.3699 11.921 20.3699C7.66 20.3699 5.5 19.6308 5.5 18.1728Z" fill="black"/>
</svg>
