<svg width="24" height="24" viewBox="0 0 24 24" fill="none" xmlns="http://www.w3.org/2000/svg">
<path fill-rule="evenodd" clip-rule="evenodd" d="M22.75 13.9551H1.75C1.336 13.9551 1 13.6191 1 13.2051C1 12.7911 1.336 12.4551 1.75 12.4551H22.75C23.164 12.4551 23.5 12.7911 23.5 13.2051C23.5 13.6191 23.164 13.9551 22.75 13.9551Z" fill="black"/>
<path fill-rule="evenodd" clip-rule="evenodd" d="M20.8794 9.745C20.4654 9.745 20.1294 9.409 20.1294 8.995V7.481C20.1294 5.838 18.7914 4.5 17.1464 4.5H15.9414C15.5274 4.5 15.1914 4.164 15.1914 3.75C15.1914 3.336 15.5274 3 15.9414 3H17.1464C19.6184 3 21.6294 5.011 21.6294 7.481V8.995C21.6294 9.409 21.2934 9.745 20.8794 9.745Z" fill="black"/>
<path fill-rule="evenodd" clip-rule="evenodd" d="M3.62109 9.745C3.20709 9.745 2.87109 9.409 2.87109 8.995V7.481C2.87109 5.011 4.88209 3 7.35409 3H8.59009C9.00409 3 9.34009 3.336 9.34009 3.75C9.34009 4.164 9.00409 4.5 8.59009 4.5H7.35409C5.70909 4.5 4.37109 5.838 4.37109 7.481V8.995C4.37109 9.409 4.03509 9.745 3.62109 9.745Z" fill="black"/>
<path fill-rule="evenodd" clip-rule="evenodd" d="M17.1464 21.7606H15.9414C15.5274 21.7606 15.1914 21.4246 15.1914 21.0106C15.1914 20.5966 15.5274 20.2606 15.9414 20.2606H17.1464C18.7914 20.2606 20.1294 18.9226 20.1294 17.2786V13.2036C20.1294 12.7896 20.4654 12.4536 20.8794 12.4536C21.2934 12.4536 21.6294 12.7896 21.6294 13.2036V17.2786C21.6294 19.7496 19.6184 21.7606 17.1464 21.7606Z" fill="black"/>
<path fill-rule="evenodd" clip-rule="evenodd" d="M8.59009 21.7606H7.35409C4.88209 21.7606 2.87109 19.7496 2.87109 17.2786V13.2036C2.87109 12.7896 3.20709 12.4536 3.62109 12.4536C4.03509 12.4536 4.37109 12.7896 4.37109 13.2036V17.2786C4.37109 18.9226 5.70909 20.2606 7.35409 20.2606H8.59009C9.00409 20.2606 9.34009 20.5966 9.34009 21.0106C9.34009 21.4246 9.00409 21.7606 8.59009 21.7606Z" fill="black"/>
</svg>
