<svg width="24" height="24" viewBox="0 0 24 24" fill="none" xmlns="http://www.w3.org/2000/svg">
<mask id="mask0_2369_3185" style="mask-type:luminance" maskUnits="userSpaceOnUse" x="4" y="2" width="17" height="21">
<path fill-rule="evenodd" clip-rule="evenodd" d="M4 2.00049H20.9667V22.3561H4V2.00049Z" fill="white"/>
</mask>
<g mask="url(#mask0_2369_3185)">
<path fill-rule="evenodd" clip-rule="evenodd" d="M12.4834 3.5C11.6354 3.5 6.28444 5.384 5.66744 5.899C5.48644 6.081 5.47944 6.399 5.51744 8.526C5.53644 9.552 5.56144 10.947 5.56144 12.879C5.56144 18.08 11.2834 20.389 12.4824 20.814C13.6804 20.387 19.4054 18.065 19.4054 12.879C19.4054 10.949 19.4304 9.555 19.4484 8.529C19.4874 6.4 19.4804 6.082 19.2874 5.889C18.6814 5.384 13.3314 3.5 12.4834 3.5ZM12.4834 22.356C12.4104 22.356 12.3374 22.346 12.2664 22.324C11.9314 22.223 4.06144 19.761 4.06144 12.879C4.06144 10.959 4.03644 9.572 4.01844 8.554C3.97244 6.014 3.96244 5.484 4.61744 4.828C5.40444 4.041 11.3504 2 12.4834 2C13.6164 2 19.5624 4.041 20.3484 4.828C21.0044 5.484 20.9944 6.014 20.9484 8.557C20.9304 9.575 20.9054 10.962 20.9054 12.879C20.9054 19.761 13.0354 22.223 12.7004 22.324C12.6294 22.346 12.5564 22.356 12.4834 22.356Z" fill="black"/>
</g>
<path fill-rule="evenodd" clip-rule="evenodd" d="M14.3632 14.5751C14.1712 14.5751 13.9792 14.5021 13.8332 14.3551L10.0752 10.5971C9.78222 10.3041 9.78222 9.83013 10.0752 9.53713C10.3682 9.24413 10.8422 9.24413 11.1352 9.53713L14.8932 13.2951C15.1862 13.5881 15.1862 14.0621 14.8932 14.3551C14.7472 14.5021 14.5552 14.5751 14.3632 14.5751Z" fill="black"/>
<path fill-rule="evenodd" clip-rule="evenodd" d="M10.6052 14.5751C10.4132 14.5751 10.2212 14.5021 10.0752 14.3551C9.78222 14.0621 9.78222 13.5881 10.0752 13.2951L13.8332 9.53713C14.1262 9.24413 14.6002 9.24413 14.8932 9.53713C15.1862 9.83013 15.1862 10.3041 14.8932 10.5971L11.1352 14.3551C10.9892 14.5021 10.7972 14.5751 10.6052 14.5751Z" fill="black"/>
</svg>
