<svg width="24" height="24" viewBox="0 0 24 24" fill="none" xmlns="http://www.w3.org/2000/svg">
<path d="M11.4806 3.49936C11.6728 3.10885 12.2299 3.10885 12.4221 3.49936L14.6747 8.07534C14.7506 8.23046 14.8985 8.33798 15.0696 8.36281L20.1129 9.09474C20.5435 9.15724 20.7155 9.68702 20.4039 9.99036L16.7542 13.5443C16.6304 13.6649 16.5739 13.8388 16.6031 14.0092L17.4646 19.0316C17.5382 19.4604 17.0875 19.7879 16.7024 19.5854L12.193 17.2148C12.0399 17.1344 11.8628 17.1344 11.7097 17.2148L7.20025 19.5854C6.81515 19.7879 6.36446 19.4604 6.43804 19.0316L7.29951 14.0092C7.32875 13.8388 7.27225 13.6649 7.14846 13.5443L3.49878 9.99036C3.18713 9.68702 3.35916 9.15724 3.78975 9.09474L8.83307 8.36281C9.00414 8.33798 9.15207 8.23046 9.22793 8.07534L11.4806 3.49936Z" fill="black"/>
</svg>
