<svg width="24" height="24" viewBox="0 0 24 24" fill="none" xmlns="http://www.w3.org/2000/svg">
<path d="M16.8398 5.79639C17.2195 5.79639 17.5333 6.07854 17.583 6.44462L17.5898 6.54639V20.1642C17.5898 20.5784 17.2541 20.9142 16.8398 20.9142C16.4601 20.9142 16.1464 20.632 16.0967 20.2659L16.0898 20.1642V6.54639C16.0898 6.13217 16.4256 5.79639 16.8398 5.79639Z" fill="black"/>
<path d="M20.3857 15.5393C20.6779 15.2457 21.1528 15.2446 21.4464 15.5368C21.7133 15.8025 21.7384 16.2191 21.5213 16.5132L21.4488 16.5975L17.3711 20.6941C17.1045 20.9619 16.6863 20.9862 16.3922 20.7672L16.3079 20.6941L12.2302 16.5975C11.9379 16.3039 11.939 15.829 12.2326 15.5368C12.4995 15.2712 12.9162 15.2479 13.2093 15.4664L13.2933 15.5393L16.8391 19.1012L20.3857 15.5393Z" fill="black"/>
<path d="M6.91016 3.08301C7.28985 3.08301 7.60365 3.36516 7.65331 3.73124L7.66016 3.83301V17.4508C7.66016 17.865 7.32437 18.2008 6.91016 18.2008C6.53046 18.2008 6.21667 17.9186 6.167 17.5526L6.16016 17.4508V3.83301C6.16016 3.41879 6.49594 3.08301 6.91016 3.08301Z" fill="black"/>
<path d="M6.37825 3.30342C6.64477 3.03566 7.06302 3.01132 7.35713 3.23039L7.44136 3.30342L11.5191 7.40008C11.8114 7.69365 11.8103 8.16852 11.5167 8.46074C11.2498 8.72639 10.8331 8.74963 10.54 8.5311L10.456 8.45829L6.90959 4.89519L3.36359 8.45829C3.09793 8.72517 2.68133 8.75034 2.38721 8.53316L2.30293 8.46074C2.03605 8.19509 2.01088 7.77848 2.22805 7.48437L2.30048 7.40008L6.37825 3.30342Z" fill="black"/>
</svg>
