<svg width="24" height="24" viewBox="0 0 24 24" fill="none" xmlns="http://www.w3.org/2000/svg">
<mask id="mask0_2369_2782" style="mask-type:luminance" maskUnits="userSpaceOnUse" x="2" y="3" width="20" height="19">
<path fill-rule="evenodd" clip-rule="evenodd" d="M2 3.00049H22V21.1665H2V3.00049Z" fill="white"/>
</mask>
<g mask="url(#mask0_2369_2782)">
<path fill-rule="evenodd" clip-rule="evenodd" d="M3.5 14.9795V17.0245C3.5 17.7305 3.774 18.3935 4.273 18.8925C4.772 19.3915 5.436 19.6665 6.141 19.6665H17.857C19.313 19.6665 20.499 18.4825 20.5 17.0265V14.9785C19.214 14.6455 18.261 13.4745 18.26 12.0855C18.26 10.6965 19.213 9.52549 20.499 9.19149L20.5 7.14649C20.501 5.68849 19.318 4.50149 17.861 4.50049H6.144C4.687 4.50049 3.501 5.68549 3.5 7.14249V9.25949C3.986 9.37549 4.437 9.61449 4.812 9.96449C5.381 10.4955 5.709 11.2155 5.737 11.9935C5.74 13.4595 4.787 14.6435 3.5 14.9795ZM17.857 21.1665H6.142C5.035 21.1665 3.995 20.7365 3.212 19.9535C2.43 19.1705 2 18.1305 2 17.0245V14.3245C2 13.9105 2.336 13.5745 2.75 13.5745C3.574 13.5735 4.24 12.9055 4.239 12.0855C4.225 11.6675 4.065 11.3195 3.789 11.0615C3.514 10.8035 3.158 10.6625 2.776 10.6835C2.569 10.6855 2.375 10.6145 2.229 10.4735C2.083 10.3325 2 10.1365 2 9.93349V7.14349C2.001 4.85849 3.86 3.00049 6.144 3.00049H17.856C20.146 3.00149 22.002 4.86349 22 7.14749V9.84649C22 10.2605 21.664 10.5965 21.25 10.5965C20.429 10.5965 19.76 11.2645 19.76 12.0845C19.761 12.9065 20.429 13.5745 21.25 13.5745C21.664 13.5745 22 13.9105 22 14.3245V17.0245C21.999 19.3085 20.14 21.1665 17.857 21.1665Z" fill="black"/>
</g>
<path fill-rule="evenodd" clip-rule="evenodd" d="M10.1048 11.3815L10.6138 11.8775C10.8898 12.1485 11.0148 12.5345 10.9488 12.9115L10.8288 13.6095L11.4578 13.2785C11.7968 13.0975 12.2038 13.0985 12.5458 13.2805L13.1708 13.6085L13.0508 12.9095C12.9878 12.5265 13.1138 12.1435 13.3868 11.8775L13.8958 11.3815L13.1908 11.2795C12.8128 11.2245 12.4848 10.9865 12.3158 10.6415L12.0008 10.0045L11.6858 10.6425C11.5168 10.9865 11.1888 11.2245 10.8088 11.2795L10.1048 11.3815ZM13.6188 15.3875C13.4328 15.3875 13.2468 15.3425 13.0748 15.2515L12.0008 14.6885L10.9258 15.2525C10.5298 15.4595 10.0588 15.4265 9.6988 15.1645C9.3378 14.9015 9.1608 14.4655 9.2358 14.0255L9.4408 12.8295L8.5718 11.9825C8.2528 11.6715 8.1388 11.2145 8.2758 10.7905C8.4138 10.3655 8.7738 10.0605 9.2148 9.99652L10.4188 9.82052L10.9558 8.73152C11.1528 8.33152 11.5528 8.08252 12.0008 8.08252C12.4468 8.08252 12.8478 8.33152 13.0448 8.73252L13.5828 9.82052L14.7848 9.99652C15.2268 10.0605 15.5878 10.3655 15.7248 10.7905C15.8618 11.2145 15.7488 11.6715 15.4288 11.9835L14.5588 12.8305L14.7648 14.0255C14.8398 14.4665 14.6618 14.9035 14.2998 15.1655C14.0958 15.3125 13.8578 15.3875 13.6188 15.3875Z" fill="black"/>
</svg>
