<svg width="24" height="24" viewBox="0 0 24 24" fill="none" xmlns="http://www.w3.org/2000/svg">
<path fill-rule="evenodd" clip-rule="evenodd" d="M7.665 3.5C5.135 3.5 3.5 5.233 3.5 7.916V16.084C3.5 18.767 5.135 20.5 7.665 20.5H16.333C18.864 20.5 20.5 18.767 20.5 16.084V7.916C20.5 5.233 18.864 3.5 16.334 3.5H7.665ZM16.333 22H7.665C4.276 22 2 19.622 2 16.084V7.916C2 4.378 4.276 2 7.665 2H16.334C19.723 2 22 4.378 22 7.916V16.084C22 19.622 19.723 22 16.333 22Z" fill="black"/>
<path fill-rule="evenodd" clip-rule="evenodd" d="M10.8152 15.1232C10.6242 15.1232 10.4312 15.0502 10.2852 14.9032L7.91116 12.5302C7.61816 12.2372 7.61816 11.7632 7.91116 11.4702C8.20416 11.1772 8.67816 11.1772 8.97116 11.4702L10.8152 13.3122L15.0312 9.09719C15.3242 8.80419 15.7982 8.80419 16.0912 9.09719C16.3842 9.39019 16.3842 9.86419 16.0912 10.1572L11.3452 14.9032C11.1992 15.0502 11.0072 15.1232 10.8152 15.1232Z" fill="black"/>
</svg>
