<svg width="24" height="24" viewBox="0 0 24 24" fill="none" xmlns="http://www.w3.org/2000/svg">
<mask id="mask0_2369_2844" style="mask-type:luminance" maskUnits="userSpaceOnUse" x="2" y="5" width="16" height="16">
<path fill-rule="evenodd" clip-rule="evenodd" d="M2 5.00049H17.5003V20.5018H2V5.00049Z" fill="white"/>
</mask>
<g mask="url(#mask0_2369_2844)">
<path fill-rule="evenodd" clip-rule="evenodd" d="M6.84711 6.50183C6.40811 6.50183 6.12511 6.50183 6.07611 6.50383C5.33811 6.53483 4.65711 6.84783 4.16611 7.38383C3.70811 7.88483 3.47211 8.52483 3.50311 9.18883C3.50311 12.0818 3.50411 16.4238 3.51111 16.6618C3.62511 18.0468 4.92311 19.1058 6.40911 18.9918C9.15911 18.9958 13.2331 19.0048 13.4241 18.9978C14.1591 18.9678 14.8411 18.6558 15.3321 18.1208C15.7911 17.6218 16.0271 16.9818 15.9981 16.3208C15.9971 16.3098 15.9971 16.2988 15.9971 16.2878C15.9981 13.4278 15.9981 9.08883 15.9911 8.85583C15.8781 7.46383 14.5741 6.39183 13.0801 6.50883C11.0141 6.50583 8.19511 6.50183 6.84711 6.50183ZM6.14611 20.5018C4.03211 20.5028 2.18811 18.8828 2.01411 16.7578C2.01111 16.7168 2.00111 16.5918 2.00411 9.22283C1.95611 8.19183 2.33011 7.16783 3.06011 6.37083C3.82211 5.53883 4.87311 5.05383 6.02011 5.00483C6.15911 4.99483 10.9671 5.00683 13.0261 5.01083C15.2761 4.85283 17.3071 6.52283 17.4881 8.76383C17.4961 8.87283 17.4991 11.3978 17.4971 16.2728C17.5391 17.3288 17.1631 18.3458 16.4371 19.1358C15.6741 19.9668 14.6221 20.4498 13.4761 20.4968C13.3361 20.5068 8.52611 20.4938 6.46411 20.4898C6.35811 20.4978 6.25211 20.5018 6.14611 20.5018Z" fill="black"/>
</g>
<path fill-rule="evenodd" clip-rule="evenodd" d="M20.8179 18.3493C20.3669 18.3493 19.9219 18.1943 19.5549 17.8933L16.2739 15.1973C15.9539 14.9343 15.9079 14.4613 16.1709 14.1413C16.4329 13.8223 16.9059 13.7743 17.2259 14.0383L20.5059 16.7343C20.7269 16.9143 20.9489 16.8403 21.0349 16.7983C21.1209 16.7583 21.3199 16.6333 21.3199 16.3493L21.3319 9.00031C21.3329 8.71631 21.1329 8.59131 21.0469 8.55031C20.9619 8.51031 20.7369 8.43531 20.5179 8.61531L17.2249 11.3103C16.9029 11.5733 16.4319 11.5263 16.1699 11.2043C15.9069 10.8843 15.9549 10.4123 16.2749 10.1503L19.5679 7.45431C20.1719 6.95931 20.9849 6.86231 21.6899 7.19531C22.3949 7.53031 22.8329 8.22231 22.8319 9.00231L22.8199 16.3513C22.8189 17.1313 22.3799 17.8233 21.6759 18.1553C21.3999 18.2863 21.1079 18.3493 20.8179 18.3493Z" fill="black"/>
</svg>
