<svg width="24" height="24" viewBox="0 0 24 24" fill="none" xmlns="http://www.w3.org/2000/svg">
<path fill-rule="evenodd" clip-rule="evenodd" d="M11.75 22.4999C11.336 22.4999 11 22.1639 11 21.7499V18.5889C11 18.1749 11.336 17.8389 11.75 17.8389C12.164 17.8389 12.5 18.1749 12.5 18.5889V21.7499C12.5 22.1639 12.164 22.4999 11.75 22.4999Z" fill="black"/>
<path fill-rule="evenodd" clip-rule="evenodd" d="M11.7495 2.5C9.9235 2.5 8.4375 3.994 8.4375 5.831V10.519C8.4375 12.354 9.9235 13.849 11.7495 13.849C13.5755 13.849 15.0615 12.354 15.0615 10.519V5.831C15.0615 3.994 13.5755 2.5 11.7495 2.5ZM11.7495 15.349C9.0965 15.349 6.9375 13.182 6.9375 10.519V5.831C6.9375 3.167 9.0965 1 11.7495 1C14.4025 1 16.5615 3.167 16.5615 5.831V10.519C16.5615 13.182 14.4025 15.349 11.7495 15.349Z" fill="black"/>
<mask id="mask0_2369_2817" style="mask-type:luminance" maskUnits="userSpaceOnUse" x="3" y="9" width="18" height="11">
<path fill-rule="evenodd" clip-rule="evenodd" d="M3 9.80078H20.4995V19.3388H3V9.80078Z" fill="white"/>
</mask>
<g mask="url(#mask0_2369_2817)">
<path fill-rule="evenodd" clip-rule="evenodd" d="M11.75 19.3388C6.925 19.3388 3 15.3968 3 10.5508C3 10.1368 3.336 9.80078 3.75 9.80078C4.165 9.80078 4.5 10.1368 4.5 10.5508C4.5 14.5688 7.752 17.8388 11.75 17.8388C15.748 17.8388 19 14.5688 19 10.5508C19 10.1368 19.336 9.80078 19.75 9.80078C20.165 9.80078 20.5 10.1368 20.5 10.5508C20.5 15.3968 16.575 19.3388 11.75 19.3388Z" fill="black"/>
</g>
</svg>
