<svg width="24" height="24" viewBox="0 0 24 24" fill="none" xmlns="http://www.w3.org/2000/svg">
<path fill-rule="evenodd" clip-rule="evenodd" d="M11.75 22.4999C11.336 22.4999 11 22.1639 11 21.7499V18.5889C11 18.1749 11.336 17.8389 11.75 17.8389C12.164 17.8389 12.5 18.1749 12.5 18.5889V21.7499C12.5 22.1639 12.164 22.4999 11.75 22.4999Z" fill="black"/>
<path fill-rule="evenodd" clip-rule="evenodd" d="M11.7495 2.5C9.9235 2.5 8.4375 3.994 8.4375 5.831V10.519C8.4375 12.354 9.9235 13.849 11.7495 13.849C13.5755 13.849 15.0605 12.354 15.0605 10.519V5.831C15.0605 3.994 13.5755 2.5 11.7495 2.5ZM11.7495 15.349C9.0965 15.349 6.9375 13.182 6.9375 10.519V5.831C6.9375 3.167 9.0965 1 11.7495 1C14.4025 1 16.5605 3.167 16.5605 5.831V10.519C16.5605 13.182 14.4025 15.349 11.7495 15.349Z" fill="black"/>
<path fill-rule="evenodd" clip-rule="evenodd" d="M11.75 19.3388C6.925 19.3388 3 15.3968 3 10.5508C3 10.1368 3.336 9.80078 3.75 9.80078C4.164 9.80078 4.5 10.1368 4.5 10.5508C4.5 14.5688 7.752 17.8388 11.75 17.8388C15.748 17.8388 19 14.5688 19 10.5508C19 10.1368 19.336 9.80078 19.75 9.80078C20.164 9.80078 20.5 10.1368 20.5 10.5508C20.5 15.3968 16.575 19.3388 11.75 19.3388Z" fill="black"/>
<path fill-rule="evenodd" clip-rule="evenodd" d="M15.8103 7.25586H13.8203C13.4063 7.25586 13.0703 6.91986 13.0703 6.50586C13.0703 6.09186 13.4063 5.75586 13.8203 5.75586H15.8103C16.2243 5.75586 16.5603 6.09186 16.5603 6.50586C16.5603 6.91986 16.2243 7.25586 15.8103 7.25586Z" fill="black"/>
<path fill-rule="evenodd" clip-rule="evenodd" d="M15.8103 10.5938H12.8203C12.4063 10.5938 12.0703 10.2578 12.0703 9.84375C12.0703 9.42975 12.4063 9.09375 12.8203 9.09375H15.8103C16.2243 9.09375 16.5603 9.42975 16.5603 9.84375C16.5603 10.2578 16.2243 10.5938 15.8103 10.5938Z" fill="black"/>
</svg>
