<svg width="24" height="24" viewBox="0 0 24 24" fill="none" xmlns="http://www.w3.org/2000/svg">
<mask id="mask0_2369_3431" style="mask-type:luminance" maskUnits="userSpaceOnUse" x="3" y="4" width="13" height="14">
<path fill-rule="evenodd" clip-rule="evenodd" d="M3 4.60107H15.0337V17.7873H3V4.60107Z" fill="white"/>
</mask>
<g mask="url(#mask0_2369_3431)">
<path fill-rule="evenodd" clip-rule="evenodd" d="M12.2305 6.11133C11.3645 6.11133 10.2515 7.02733 9.32551 7.78933C8.43551 8.52133 7.73351 9.09933 7.02851 9.15533C6.71351 9.17933 6.44351 9.19033 6.20551 9.19933C5.46651 9.22633 5.27951 9.24433 4.94751 9.52833C4.49451 9.91533 4.49851 11.4633 4.50051 12.3873L4.50151 12.6333L4.50051 12.8803C4.49851 13.8043 4.49451 15.3523 4.94751 15.7393C5.28651 16.0293 5.47851 16.0473 6.23551 16.0733C6.46451 16.0813 6.72351 16.0903 7.02251 16.1113C7.10851 16.1173 7.19651 16.1313 7.28651 16.1533L13.5245 9.91533C13.4515 7.69033 13.2265 6.69233 12.6965 6.21833C12.5525 6.14433 12.3965 6.11133 12.2305 6.11133ZM7.46351 17.7873C7.33451 17.7873 7.20551 17.7543 7.08851 17.6863C6.96851 17.6173 6.91351 17.6073 6.91351 17.6073C6.63751 17.5883 6.39751 17.5793 6.18351 17.5723C5.36751 17.5443 4.72251 17.5213 3.97251 16.8803C2.99251 16.0423 2.99651 14.2873 3.00051 12.8763L3.00151 12.6333L3.00051 12.3913C2.99651 10.9803 2.99251 9.22433 3.97351 8.38733C4.71351 7.75433 5.34751 7.73033 6.14851 7.70033C6.36951 7.69133 6.61851 7.68233 6.91051 7.65933C7.16151 7.62733 7.89051 7.02733 8.37251 6.63133C9.77851 5.47233 11.7055 3.88633 13.5075 4.95433C13.5405 4.97233 13.5715 4.99433 13.6005 5.01833C14.7245 5.93333 14.9645 7.48133 15.0335 10.1983C15.0385 10.4033 14.9595 10.6013 14.8135 10.7473L7.99451 17.5673C7.84951 17.7123 7.65751 17.7873 7.46351 17.7873Z" fill="black"/>
</g>
<path fill-rule="evenodd" clip-rule="evenodd" d="M12.233 20.6665C11.223 20.6665 10.264 20.0815 9.55303 19.5665C9.21703 19.3245 9.14203 18.8555 9.38403 18.5205C9.62803 18.1845 10.097 18.1075 10.432 18.3525C11.745 19.3015 12.337 19.2385 12.696 19.0505C13.278 18.5315 13.499 17.3635 13.533 14.6575C13.539 14.2435 13.842 13.9215 14.293 13.9175C14.707 13.9235 15.039 14.2635 15.033 14.6775C14.995 17.6325 14.763 19.3055 13.6 20.2505C13.57 20.2735 13.54 20.2955 13.508 20.3135C13.084 20.5645 12.654 20.6665 12.233 20.6665Z" fill="black"/>
<mask id="mask1_2369_3431" style="mask-type:luminance" maskUnits="userSpaceOnUse" x="3" y="4" width="18" height="18">
<path fill-rule="evenodd" clip-rule="evenodd" d="M3 4.00049H20.4982V21.5002H3V4.00049Z" fill="white"/>
</mask>
<g mask="url(#mask1_2369_3431)">
<path fill-rule="evenodd" clip-rule="evenodd" d="M3.74975 21.5002C3.55775 21.5002 3.36575 21.4272 3.21975 21.2802C2.92675 20.9872 2.92675 20.5132 3.21975 20.2202L19.2188 4.22024C19.5117 3.92724 19.9858 3.92724 20.2787 4.22024C20.5717 4.51324 20.5717 4.98724 20.2787 5.28024L4.27975 21.2802C4.13375 21.4272 3.94175 21.5002 3.74975 21.5002Z" fill="black"/>
</g>
</svg>
