<svg width="24" height="24" viewBox="0 0 24 24" fill="none" xmlns="http://www.w3.org/2000/svg">
<mask id="mask0_2369_3422" style="mask-type:luminance" maskUnits="userSpaceOnUse" x="3" y="5" width="13" height="16">
<path fill-rule="evenodd" clip-rule="evenodd" d="M3 5H15.02V20.5019H3V5Z" fill="white"/>
</mask>
<g mask="url(#mask0_2369_3422)">
<path fill-rule="evenodd" clip-rule="evenodd" d="M12.208 6.50589C11.34 6.50589 10.23 7.38689 9.30598 8.12089C8.41698 8.82589 7.71498 9.38389 7.01498 9.43589C6.70498 9.45789 6.43898 9.46789 6.20498 9.47589C5.45798 9.50089 5.26898 9.51789 4.93198 9.79589C4.48998 10.1589 4.49698 11.6419 4.50098 12.5269L4.50198 12.7479V12.7519L4.50098 12.9729C4.49698 13.8589 4.48998 15.3419 4.93198 15.7049C5.26798 15.9829 5.45698 15.9989 6.20198 16.0259C6.43698 16.0329 6.70398 16.0429 7.01498 16.0659C7.71498 16.1169 8.41698 16.6749 9.30598 17.3799C10.409 18.2549 11.776 19.3399 12.681 18.8889C13.439 18.2319 13.52 16.4899 13.52 12.7499C13.52 9.00989 13.439 7.26889 12.681 6.61089C12.534 6.53789 12.375 6.50589 12.208 6.50589ZM12.218 20.5019C10.827 20.5019 9.44798 19.4069 8.37398 18.5549C7.88898 18.1699 7.15598 17.5879 6.90298 17.5619C6.61598 17.5399 6.36798 17.5309 6.14898 17.5249C5.35098 17.4959 4.71998 17.4749 3.97798 16.8629C2.98598 16.0459 2.99498 14.3379 3.00098 12.9659L3.00198 12.7499L3.00098 12.5339C2.99498 11.1619 2.98598 9.45489 3.97798 8.63789C4.72098 8.02589 5.35298 8.00389 6.15298 7.97689C6.37098 7.96889 6.61798 7.96089 6.90498 7.93989C7.15598 7.91289 7.88898 7.33089 8.37398 6.94589C9.77198 5.83489 11.689 4.31789 13.474 5.33489C13.505 5.35389 13.536 5.37389 13.564 5.39689C14.958 6.49189 15.02 8.55689 15.02 12.7499C15.02 16.9439 14.958 19.0089 13.564 20.1049C13.536 20.1269 13.505 20.1479 13.473 20.1659C13.059 20.4019 12.638 20.5019 12.218 20.5019Z" fill="black"/>
</g>
<path fill-rule="evenodd" clip-rule="evenodd" d="M18.3316 17.1864C18.2046 17.1864 18.0766 17.1544 17.9586 17.0864C17.5996 16.8804 17.4756 16.4214 17.6816 16.0634C18.8526 14.0224 18.8526 11.4844 17.6816 9.43744C17.4756 9.07744 17.6006 8.61944 17.9596 8.41344C18.3196 8.21144 18.7766 8.33244 18.9826 8.69144C20.4176 11.1994 20.4176 14.3094 18.9826 16.8094C18.8436 17.0514 18.5916 17.1864 18.3316 17.1864Z" fill="black"/>
</svg>
