<svg width="512" height="512" viewBox="0 0 512 512" fill="none" xmlns="http://www.w3.org/2000/svg">
<path d="M230.15 70.4903V94.9804L215.527 107.403C195.921 124.055 170.039 146.061 156.387 157.685C150.24 162.89 137.816 173.449 128.725 181.14C110.543 196.549 109.281 197.703 106.726 201.163C102.811 206.458 100.643 212.166 100.061 218.732C99.7051 222.607 99.7698 259.047 100.126 259.372C100.482 259.697 160.269 259.549 164.022 259.224C199.868 256.148 229.859 234.882 242.315 203.678C243.932 199.655 245.582 193.828 246.585 188.563L247.459 183.979L247.524 114.975L247.621 46.0001H238.885H230.15V70.4903Z" fill="black"/>
<path d="M264.865 131.952C264.962 183.506 264.962 183.683 265.673 187.558C267.809 199.33 271.529 208.972 277.547 218.289C284.826 229.558 295.438 239.585 307.376 246.506C319.799 253.693 334.002 258.13 348.399 259.254C350.857 259.431 373.213 259.549 409.157 259.549H466V251.563V243.577H439.309H412.618V232.545C412.618 220.123 412.327 216.248 411.162 212.048C410.16 208.528 407.183 202.849 404.886 200.099C403.01 197.821 399.095 194.331 387.222 184.275C382.401 180.223 374.184 173.213 368.942 168.747C363.669 164.28 356.26 157.951 352.443 154.727C348.625 151.473 343.675 147.273 341.443 145.38C339.211 143.487 332.966 138.163 327.531 133.549C299.061 109.355 290.941 102.463 285.797 98.0564C280.555 93.5606 272.597 86.8169 268.067 83.0014L264.735 80.2212L264.865 131.952Z" fill="black"/>
<path d="M46.1941 275.876C46.2912 276.261 46.3882 279.839 46.3882 283.862V291.197L73.079 291.256L99.7698 291.345V335.268C99.7698 359.432 99.9316 381.113 100.093 383.479C100.579 390.577 102.746 396.463 106.952 402.024C112.776 409.744 122.611 415.245 132.931 416.606C134.355 416.783 155.901 416.901 191.424 416.901H247.653L247.524 383.982C247.427 352.097 247.394 350.973 246.747 347.246C244.385 333.996 239.856 323.2 232.415 312.996C218.827 294.392 198.315 281.584 174.666 277.03C165.898 275.344 169.392 275.403 105.14 275.314L46 275.196L46.1941 275.876Z" fill="black"/>
<path d="M349.855 275.432C343.513 275.787 333.096 277.739 326.658 279.78C304.464 286.849 285.894 301.549 275.153 320.508C270.267 329.145 267.582 336.687 265.641 347.217L264.962 351.092L264.865 408.531L264.735 466H273.503H282.238V441.658V417.286L288.126 417.108C291.329 416.99 312.714 416.901 335.619 416.901C372.113 416.901 377.613 416.842 380.298 416.428C396.248 413.973 408.283 403.237 411.842 388.211C412.424 385.815 412.457 383.124 412.457 330.535V275.373L382.045 275.344C365.319 275.344 350.825 275.373 349.855 275.432Z" fill="black"/>
</svg>
